<svg width="2814" height="625" viewBox="0 0 2814 625" fill="none" xmlns="http://www.w3.org/2000/svg">
<path d="M316.5 0L120 360H200.5L316.5 130.5L435.5 360H510L316.5 0Z" fill="#3A3A36"/>
<path d="M166 422H93.5L0 624L265.5 624.5V566H94.5L166 422Z" fill="#3A3A36"/>
<path d="M466 422H534L628 624H360.5V566H538.5L466 422Z" fill="#3A3A36"/>
<path d="M787 79L1011.5 624H1028.5L1201.5 218L1370.5 624H1390.5L1596 79H1525.5L1378 451L1208.5 80H1193.5L1020.5 471L854 79H787Z" fill="#3A3A36"/>
<path d="M1775.5 79V599.113H2123.66V526.823L1845 525V79H1775.5Z" fill="#3A3A36"/>
<path d="M2273.5 599L2510.5 80H2560.5L2813.5 599H2737.5L2534.5 180L2349.5 599H2273.5Z" fill="#3A3A36"/>
</svg>
